<?xml version="1.0" standalone="no"?><!DOCTYPE svg PUBLIC "-//W3C//DTD SVG 1.1//EN" "http://www.w3.org/Graphics/SVG/1.1/DTD/svg11.dtd"><svg t="1617973062053" class="icon" viewBox="0 0 1024 1024" version="1.1" xmlns="http://www.w3.org/2000/svg" p-id="27650" width="48" height="48"><path d="M832.87 315.63c1.03-17.55-5.15-35.44-18.56-48.85L701.35 153.82c-11.62-15.67-30.26-25.83-51.27-25.83H256.83c-26.52 0-49.25 16.18-58.88 39.21a63.56 63.56 0 0 0-5.05 24.91V545h-24.88c-22.09 0-40 17.91-40 40v142.8c0 22.09 17.91 40 40 40h24.88v70.48h0.46c3.26 32.18 30.43 57.29 63.47 57.29h512.39v0.06c35.23 0 63.79-28.56 63.79-63.79V319.75c0.01-1.39-0.05-2.76-0.14-4.12z m-63.65 516.15H256.7V767.8h406.64c22.09 0 40-17.91 40-40V585c0-22.09-17.91-40-40-40H256.7V191.78h327.51v121.45c0 35.23 28.56 63.79 63.79 63.79h121.22v454.76z m-371.33-98.97h-37.51l-6.76-22.14h-44.89l-7.17 22.14h-37.51l53.08-148.73h27.67l53.09 148.73z m-7.17-148.73h37.1l24.59 83.14 24.18-83.14h37.3l-48.37 148.73h-26.64l-48.16-148.73z m137.94 148.73V584.08h35.87v148.73h-35.87z m240.56-419.58H648V191.78h1.09l120.13 120.13v1.32z" fill="#2B93E0" p-id="27651"></path><path d="M318.77 680.17h25.42l-12.3-39.69zM422.69 256c-56.7 0-102.66 45.96-102.66 102.66 0 56.7 45.96 102.66 102.66 102.66 56.7 0 102.66-45.96 102.66-102.66 0-56.7-45.97-102.66-102.66-102.66z m59.8 115.63l-81.89 47.28c-9.98 5.76-22.46-1.44-22.46-12.97v-94.55c0-11.53 12.48-18.73 22.46-12.97l81.89 47.28c9.98 5.75 9.98 20.16 0 25.93z" fill="#2B93E0" p-id="27652"></path></svg>