<?xml version="1.0" standalone="no"?><!DOCTYPE svg PUBLIC "-//W3C//DTD SVG 1.1//EN" "http://www.w3.org/Graphics/SVG/1.1/DTD/svg11.dtd"><svg t="1617973380676" class="icon" viewBox="0 0 1024 1024" version="1.1" xmlns="http://www.w3.org/2000/svg" p-id="2671" xmlns:xlink="http://www.w3.org/1999/xlink" width="48" height="48"><defs><style type="text/css"></style></defs><path d="M269.76 800.096a16 16 0 1 0 0 32c28.544 0 50.496 21.44 50.496 48s-21.952 48-50.496 48a16 16 0 1 0 0 32c45.088 0 82.496-35.616 82.496-80s-37.44-80-82.496-80z" fill="#E9EDED" p-id="2672"></path><path d="M847.872 240.128v688c0 26.56-21.408 48-48 48h-576c-26.56 0-48-21.44-48-48v-832c0-26.592 21.44-48 48-48h432z" fill="#E9EDED" p-id="2673"></path><path d="M160 768.128v160c0 35.456 28.544 64 64 64h576c35.456 0 64-28.544 64-64v-160H160z" fill="#4BBFEB" p-id="2674"></path><path d="M847.872 240.128h-144c-26.56 0-48-21.44-48-48v-144" fill="#4BBFEB" p-id="2675"></path><path d="M238.624 128a16 16 0 0 0 1.6 32H400a16 16 0 1 0 0-32H240.256a16 16 0 0 0-1.632 0z m0 64a16 16 0 0 0 1.6 32h288a16 16 0 1 0 0-32h-288a16 16 0 0 0-1.6 0z m0 96a16 16 0 0 0 1.6 32h128a16 16 0 1 0 0-32h-128a16 16 0 0 0-1.6 0z m192 0a16 16 0 0 0 1.6 32h32a16 16 0 1 0 0-32h-32a16 16 0 0 0-1.6 0z m96 0a16 16 0 0 0 1.6 32H784a16 16 0 1 0 0-32h-255.744a16 16 0 0 0-1.632 0z m-288 64a16 16 0 0 0 1.6 32h192a16 16 0 1 0 0-32h-192a16 16 0 0 0-1.6 0z m256 0a16 16 0 0 0 1.6 32h32a16 16 0 1 0 0-32h-32a16 16 0 0 0-1.6 0z m96 0a16 16 0 0 0 1.6 32H784a16 16 0 1 0 0-32h-191.744a16 16 0 0 0-1.632 0z m-352 64a16 16 0 0 0 1.6 32h256a16 16 0 1 0 0-32h-256a16 16 0 0 0-1.6 0z m320 0a16 16 0 0 0 1.6 32h32a16 16 0 1 0 0-32h-32a16 16 0 0 0-1.6 0z m96 0a16 16 0 0 0 1.6 32H784a16 16 0 1 0 0-32h-127.744a16 16 0 0 0-1.632 0z m-416 64a16 16 0 0 0 1.6 32h128a16 16 0 1 0 0-32h-128a16 16 0 0 0-1.6 0z m192 0a16 16 0 0 0 1.6 32h32a16 16 0 1 0 0-32h-32a16 16 0 0 0-1.6 0z m96 0a16 16 0 0 0 1.6 32H784a16 16 0 0 0 0-32h-255.744a16 16 0 0 0-1.632 0z" fill="#4BBFEB" p-id="2676"></path><path d="M688.256 800.096a16 16 0 1 0 0 32h32a16 16 0 1 0 0-32h-32z m0.256 128a16 16 0 1 0 0 32h32a16 16 0 1 0 0-32h-32z" fill="#E9EDED" p-id="2677"></path><path d="M690.688 800.096c-45.12 0-82.432 35.616-82.432 80s37.344 80 82.432 80a16 16 0 1 0 0-32c-28.544 0-50.432-21.44-50.432-48s21.888-48 50.432-48a16 16 0 1 0 0-32zM496.256 800c44 0 80 36.032 80 80 0 44-36 80-80 80a80.256 80.256 0 0 1-80-80c0-43.968 36-80 80-80z m0 32c-26.72 0-48 21.312-48 48 0 26.72 21.28 48 48 48 26.688 0 48-21.28 48-48 0-26.688-21.312-48-48-48z" fill="#E9EDED" p-id="2678"></path><path d="M272.448 800.096a16 16 0 1 0 0 32h32a16 16 0 1 0 0-32h-32z m-0.192 128a16 16 0 1 0 0 32h32a16 16 0 1 0 0-32h-32z" fill="#E9EDED" p-id="2679"></path><path d="M302.016 800.096a16 16 0 1 0 0 32c28.544 0 50.496 21.44 50.496 48s-21.952 48-50.528 48a16 16 0 1 0 0 32c45.12 0 82.528-35.616 82.528-80s-37.44-80-82.528-80z" fill="#E9EDED" p-id="2680"></path><path d="M271.744 799.68a16 16 0 0 0-15.744 16.224v128a16 16 0 1 0 32 0v-128a16 16 0 0 0-16.256-16.224z" fill="#E9EDED" p-id="2681"></path></svg>