<?xml version="1.0" standalone="no"?><!DOCTYPE svg PUBLIC "-//W3C//DTD SVG 1.1//EN" "http://www.w3.org/Graphics/SVG/1.1/DTD/svg11.dtd"><svg t="1617974017068" class="icon" viewBox="0 0 1024 1024" version="1.1" xmlns="http://www.w3.org/2000/svg" p-id="3433" xmlns:xlink="http://www.w3.org/1999/xlink" width="48" height="48"><defs><style type="text/css"></style></defs><path d="M180.928 538.368v-86.08l-81.76 90.944z m689.472 0l1.12-86.048 78.56 87.808z" fill="#117CCC" p-id="3434"></path><path d="M870.4 882.528a47.52 47.52 0 0 1-12.128 30.912 43.328 43.328 0 0 1-30.88 12.128H223.968a47.52 47.52 0 0 1-30.912-12.128 43.424 43.424 0 0 1-12.128-30.912V107.04a41.6 41.6 0 0 1 43.04-43.04h369.536a47.52 47.52 0 0 1 30.912 12.128l232.736 232.768a43.296 43.296 0 0 1 12.16 30.912v542.72z" fill="#EBECF0" p-id="3435"></path><path d="M870.4 882.528v43.04a47.424 47.424 0 0 1-12.128 30.88 43.2 43.2 0 0 1-30.88 12.128H223.968a42.4 42.4 0 0 1-43.04-43.008v-43.04a47.52 47.52 0 0 0 12.128 30.912 43.456 43.456 0 0 0 30.912 12.128h603.424a41.6 41.6 0 0 0 43.008-43.04z" fill="#C1C7D0" p-id="3436"></path><path d="M111.328 537.248h829.792a15.328 15.328 0 0 1 15.328 15.328v199.808a47.488 47.488 0 0 1-12.128 30.88 43.328 43.328 0 0 1-30.88 12.128h-774.4a47.488 47.488 0 0 1-30.88-12.128 43.328 43.328 0 0 1-12.128-30.88v-199.808a15.328 15.328 0 0 1 15.296-15.328z" fill="#1890FF" p-id="3437"></path><path d="M247.232 286.976m20.64 0l110.752 0q20.64 0 20.64 20.64l0 0q0 20.64-20.64 20.64l-110.752 0q-20.64 0-20.64-20.64l0 0q0-20.64 20.64-20.64Z" fill="#C1C7D0" p-id="3438"></path><path d="M247.232 171.456m20.64 0l282.56 0q20.64 0 20.64 20.64l0 0q0 20.64-20.64 20.64l-282.56 0q-20.64 0-20.64-20.64l0 0q0-20.64 20.64-20.64Z" fill="#C1C7D0" p-id="3439"></path><path d="M247.232 402.528m20.64 0l282.56 0q20.64 0 20.64 20.64l0 0q0 20.64-20.64 20.64l-282.56 0q-20.64 0-20.64-20.64l0 0q0-20.64 20.64-20.64Z" fill="#C1C7D0" p-id="3440"></path><path d="M859.36 308.896l-233.856-232.768a47.424 47.424 0 0 0-30.88-12.128v238.272a42.4 42.4 0 0 0 43.008 43.04h232.768v-5.504a52.768 52.768 0 0 0-11.04-30.912z" fill="#C1C7D0" p-id="3441"></path><path d="M293.824 602.688a42.72 42.72 0 0 1 21.728 5.792 43.712 43.712 0 0 1 15.776 15.808 42.528 42.528 0 0 1 5.792 21.76v38.112a42.528 42.528 0 0 1-5.792 21.76 43.36 43.36 0 0 1-15.776 15.776 42.432 42.432 0 0 1-21.728 5.824H217.536v-124.8z m2.24 102.048a22.976 22.976 0 0 0 8.704-8.704 23.488 23.488 0 0 0 3.2-11.872v-38.112a23.936 23.936 0 0 0-3.2-12.064 23.712 23.712 0 0 0-20.544-11.872H246.496v85.792h37.728a23.36 23.36 0 0 0 11.84-3.232z" fill="#FFFFFF" p-id="3442"></path><path d="M392.032 616.768a28.512 28.512 0 0 1 10.304-10.336 27.68 27.68 0 0 1 14.144-3.808h62.88a28.32 28.32 0 0 1 28.448 28.32v68.032a28.256 28.256 0 0 1-3.808 14.24 28.16 28.16 0 0 1-24.64 14.24h-62.752a27.136 27.136 0 0 1-14.144-3.904 29.024 29.024 0 0 1-10.304-10.432 27.424 27.424 0 0 1-3.808-14.144v-68.032a27.456 27.456 0 0 1 3.68-14.176z m82.336 86.816a13.92 13.92 0 0 0 4.256-10.24v-56.608a14.208 14.208 0 0 0-4.256-10.432 13.92 13.92 0 0 0-10.24-4.256h-32.256a14.592 14.592 0 0 0-14.688 14.688v56.608a13.952 13.952 0 0 0 4.288 10.24 14.112 14.112 0 0 0 10.4 4.256h32.256a13.92 13.92 0 0 0 10.08-4.256z" fill="#FFFFFF" p-id="3443"></path><path d="M678.496 727.488h-82.688a35.808 35.808 0 0 1-18.592-4.992 37.664 37.664 0 0 1-13.408-13.504 36.384 36.384 0 0 1-4.96-18.528v-50.976a35.648 35.648 0 0 1 4.96-18.4 37.728 37.728 0 0 1 13.408-13.44 35.808 35.808 0 0 1 18.592-4.992h82.624v19.424h-72.832a16.992 16.992 0 0 0-12.352 4.992 16.768 16.768 0 0 0-5.056 12.416v50.976a17.28 17.28 0 0 0 17.408 17.408h72.832z" fill="#FFFFFF" p-id="3444"></path><path d="M843.744 602.432l-43.68 62.432 43.68 62.592h-32.256l-27.552-39.392-27.52 39.392h-32.608l43.648-62.592-43.648-62.432h32.448l27.52 39.392 27.552-39.392z" fill="#FFFFFF" p-id="3445"></path></svg>