<?xml version="1.0" standalone="no"?><!DOCTYPE svg PUBLIC "-//W3C//DTD SVG 1.1//EN" "http://www.w3.org/Graphics/SVG/1.1/DTD/svg11.dtd"><svg t="1617973373758" class="icon" viewBox="0 0 1024 1024" version="1.1" xmlns="http://www.w3.org/2000/svg" p-id="2521" xmlns:xlink="http://www.w3.org/1999/xlink" width="48" height="48"><defs><style type="text/css"></style></defs><path d="M847.872 240.128v688c0 26.56-21.408 48-48 48h-576c-26.56 0-48-21.44-48-48v-832c0-26.592 21.44-48 48-48h432z" fill="#E9EDED" p-id="2522"></path><path d="M160 768.128v160c0 35.456 28.544 64 64 64h576c35.456 0 64-28.544 64-64v-160H160z" fill="#F05542" p-id="2523"></path><path d="M847.872 240.128h-144c-26.56 0-48-21.44-48-48v-144" fill="#4BBFEB" p-id="2524"></path><path d="M240 96a16 16 0 0 0-16 16v128a16 16 0 0 0 16 16h160a16 16 0 0 0 16-16v-128a16 16 0 0 0-16-16h-160z m222.624 0a16 16 0 0 0 1.6 32H592a16 16 0 1 0 0-32h-127.744a16 16 0 0 0-1.632 0zM256 128h128v96H256V128z m206.624 32a16 16 0 0 0 1.6 32H592a16 16 0 1 0 0-32h-127.744a16 16 0 0 0-1.632 0z m0 64a16 16 0 0 0 1.6 32H592a16 16 0 1 0 0-32h-127.744a16 16 0 0 0-1.632 0z m-224 64a16 16 0 0 0 1.6 32h128a16 16 0 1 0 0-32h-128a16 16 0 0 0-1.6 0z m192 0a16 16 0 0 0 1.6 32h32a16 16 0 1 0 0-32h-32a16 16 0 0 0-1.6 0z m96 0a16 16 0 0 0 1.6 32H784a16 16 0 1 0 0-32h-255.744a16 16 0 0 0-1.632 0z m-288 64a16 16 0 0 0 1.6 32h192a16 16 0 1 0 0-32h-192a16 16 0 0 0-1.6 0z m256 0a16 16 0 0 0 1.6 32h32a16 16 0 1 0 0-32h-32a16 16 0 0 0-1.6 0z m96 0a16 16 0 0 0 1.6 32H784a16 16 0 1 0 0-32h-191.744a16 16 0 0 0-1.632 0z m-352 64a16 16 0 0 0 1.6 32h256a16 16 0 1 0 0-32h-256a16 16 0 0 0-1.6 0z m320 0a16 16 0 0 0 1.6 32h32a16 16 0 1 0 0-32h-32a16 16 0 0 0-1.6 0z m96 0a16 16 0 0 0 1.6 32H784a16 16 0 1 0 0-32h-127.744a16 16 0 0 0-1.632 0z m-416 64a16 16 0 0 0 1.6 32h128a16 16 0 1 0 0-32h-128a16 16 0 0 0-1.6 0z m192 0a16 16 0 0 0 1.6 32h32a16 16 0 1 0 0-32h-32a16 16 0 0 0-1.6 0z m96 0a16 16 0 0 0 1.6 32H784a16 16 0 0 0 0-32h-255.744a16 16 0 0 0-1.632 0z" fill="#F05542" p-id="2525"></path><path d="M847.872 240.128h-144c-26.56 0-48-21.44-48-48v-144" fill="#F05542" p-id="2526"></path><path d="M399.2 799.68a16 16 0 0 0-15.776 16.256v126.816a16 16 0 0 0 0.64 5.824 16 16 0 0 0 0 0.064 16 16 0 0 0 0.128 0.416 16 16 0 0 0 0.448 1.12 16 16 0 0 0 0.864 1.824 16 16 0 0 0 0.64 0.992 16 16 0 0 0 0.16 0.32 16 16 0 0 0 0.768 0.96 16 16 0 0 0 0.8 0.864 16 16 0 0 0 0.384 0.416 16 16 0 0 0 0.8 0.704 16 16 0 0 0 0.448 0.384 16 16 0 0 0 0.384 0.32 16 16 0 0 0 1.12 0.736 16 16 0 0 0 2.432 1.248 16 16 0 0 0 0.864 0.32 16 16 0 0 0 5.376 0.864h31.936a16 16 0 0 0 4.768-0.704c41.856-3.456 75.52-37.248 75.52-79.296 0-41.92-33.504-75.68-75.2-79.328a16 16 0 0 0-4.8-0.672h-28.768a16 16 0 0 0-3.936-0.448zM303.872 800c-24.896 0-45.376 19.456-47.552 43.84a16 16 0 0 0-0.448 3.968v96a16 16 0 1 0 32 0v-50.816c5.024 1.824 10.368 3.008 16 3.008 26.336 0 48-21.664 48-48s-21.664-48-48-48z m290.112 0a50.56 50.56 0 0 0-50.304 50.368v28.256a16 16 0 0 0 0 2.368V944a16 16 0 1 0 32 0V896h32a16 16 0 1 0 0-32h-32v-13.632c0-10.432 7.872-18.368 18.336-18.368h29.664a16 16 0 1 0 0-32h-29.664z m-290.112 32c9.024 0 16 6.976 16 16 0 9.024-6.976 16-16 16a15.776 15.776 0 0 1-16-16v-0.192a15.776 15.776 0 0 1 16-15.808z m111.552 0.128h14.016c28.544 0 50.432 21.44 50.432 48s-21.888 48-50.432 48h-14.016v-96z" fill="#E9EDED" p-id="2527"></path></svg>