<?xml version="1.0" standalone="no"?><!DOCTYPE svg PUBLIC "-//W3C//DTD SVG 1.1//EN" "http://www.w3.org/Graphics/SVG/1.1/DTD/svg11.dtd"><svg t="1618119057579" class="icon" viewBox="0 0 1024 1024" version="1.1" xmlns="http://www.w3.org/2000/svg" p-id="1994" xmlns:xlink="http://www.w3.org/1999/xlink" width="48" height="48"><defs><style type="text/css"></style></defs><path d="M354.40128 0c-87.04 0-157.44 70.55872-157.44 157.59872v275.68128H78.72c-21.6576 0-39.36256 17.69984-39.36256 39.36256v236.31872c0 21.6576 17.69984 39.35744 39.36256 39.35744h118.24128v118.08256c0 87.04 70.4 157.59872 157.44 157.59872h472.63744c87.04 0 157.59872-70.55872 157.59872-157.59872V315.0336c0-41.74848-38.9888-81.93024-107.52-149.27872l-29.11744-29.12256L818.87744 107.52C751.5392 38.9888 711.39328 0 669.59872 0H354.4064z m0 78.72h287.20128c28.35456 7.0912 27.99616 42.1376 27.99616 76.8v120.16128c0 21.6576 17.69984 39.35744 39.36256 39.35744h118.07744c39.38816 0 78.87872-0.0256 78.87872 39.36256v512c0 43.32032-35.55328 78.87872-78.87872 78.87872H354.4064c-43.32544 0-78.72-35.5584-78.72-78.87872v-118.08256h393.91744c21.66272 0 39.36256-17.69472 39.36256-39.35744V472.64256c0-21.66272-17.69984-39.36256-39.36256-39.36256H275.68128V157.59872c0-43.32032 35.39456-78.87872 78.72-78.87872z m10.24 425.75872c23.04 0 41.27744 8.00256 54.71744 24.00256 14.08 15.36 21.12 37.43744 21.12 66.23744 0 29.44-7.04 51.84-21.12 67.2-13.44 15.36-31.67744 23.04-54.71744 23.04-23.68 0-42.24-7.35744-55.68-22.07744-13.44-15.36-20.16256-38.08256-20.16256-68.16256 0-29.44 6.72256-51.84 20.16256-67.2s32-23.04 55.68-23.04z m-302.40256 2.88256h23.04l26.88 106.55744c3.2 12.16 6.08256 27.20256 8.64256 45.12256 2.56-19.2 5.43744-35.52256 8.63744-48.96256l26.88-102.71744h24.00256l26.88 102.71744c6.4 22.4 10.24 38.72256 11.52 48.96256a493.88544 493.88544 0 0 1 7.68-46.08l23.99744-105.6h24.00256l-44.16 175.67744h-23.04l-29.76256-112.31744c-3.2-10.88-6.4-23.36256-9.6-37.44256-3.2 17.92-5.76 30.40256-7.68 37.44256l-29.75744 112.31744h-22.08256l-46.08-175.67744z m417.60256 0h91.19744v20.15744h-69.12v61.44h64.32256v20.16256H501.9136v73.91744H479.8464V507.36128z m120.96 0h91.19744v20.15744h-69.12v61.44h64.32256v20.16256h-64.32256v73.91744h-22.07744V507.36128z m-236.16 17.28c-17.28 0-30.40256 6.07744-39.36256 18.23744-8.96 11.52-13.44 28.8-13.44 51.84 0 23.68 4.48 41.6 13.44 53.76 8.96 11.52 22.08256 17.28 39.36256 17.28s30.39744-5.76 39.35744-17.28c8.96-12.16 13.44-30.08 13.44-53.76 0-23.04-4.48-40.32-13.44-51.84-8.96-12.16-22.07744-18.23744-39.35744-18.23744z" p-id="1995"></path></svg>