<?xml version="1.0" standalone="no"?><!DOCTYPE svg PUBLIC "-//W3C//DTD SVG 1.1//EN" "http://www.w3.org/Graphics/SVG/1.1/DTD/svg11.dtd"><svg t="1617971973207" class="icon" viewBox="0 0 1024 1024" version="1.1" xmlns="http://www.w3.org/2000/svg" p-id="18722" width="48" height="48"><path d="M880.1 301.9v634.6c0 15.7-12.7 28.4-28.4 28.4H194.1c-12 0-21.6-9.7-21.6-21.6V85.2c0-8.8 7.1-15.9 15.9-15.9h443.1c0.9 0 1.4 1.1 0.8 1.8-0.4 0.4-0.4 1.1 0.1 1.5l247.5 228.6c0.1 0.2 0.2 0.4 0.2 0.7z" fill="#F4F4F4" p-id="18723"></path><path d="M631.7 286.6V69.3l248.5 232.2H646.5c-8.2 0-14.8-6.7-14.8-14.9zM408.3 360.6H190c-58.4 0-105.7-47.3-105.7-105.7 0-58.4 47.3-105.7 105.7-105.7h218.2c58.4 0 105.7 47.3 105.7 105.7 0.1 58.3-47.2 105.7-105.6 105.7z" fill="#F08631" p-id="18724"></path><path d="M199.9 227.4h41L196.3 293v6.4h65.4v-13.6h-43.9l45-66.1v-5.9h-62.9zM287.6 213.8h14.8v85.6h-14.8zM382.4 220.7c-5.2-4.6-12.6-6.9-21.9-6.9h-25.2v85.6h14.8V269h8.3c9 0.3 16.7-2.2 22.7-7.5 6.1-5.4 9.2-12.4 9.2-21 0.1-8.5-2.6-15.2-7.9-19.8z m-32.3 6.6h8.6c11.2 0 16.4 4.3 16.4 13.6 0 4.8-1.4 8.3-4.3 10.8s-7.3 3.8-13.2 3.8H350v-28.2z" fill="#FFFFFF" p-id="18725"></path><path d="M706.2 848.5H348.5c-4.8 0-8.7-3.9-8.7-8.7V482.1c0-4.8 3.9-8.7 8.7-8.7h357.7c4.8 0 8.7 3.9 8.7 8.7v357.7c0 4.8-3.9 8.7-8.7 8.7z m-342.5-23.8h327.4V497.3H363.7v327.4z" fill="#F08631" p-id="18726"></path><path d="M613.9 652.4h-174c-7.5 0-13.5-6-13.5-13.5s6-13.5 13.5-13.5h174c7.5 0 13.5 6 13.5 13.5s-6 13.5-13.5 13.5zM614.8 713.4h-174c-7.5 0-13.5-6-13.5-13.5s6-13.5 13.5-13.5h174c7.5 0 13.5 6 13.5 13.5s-6 13.5-13.5 13.5zM613.9 779.4h-174c-8 0-14.5-6.5-14.5-14.5s6.5-14.5 14.5-14.5h174c8 0 14.5 6.5 14.5 14.5s-6.5 14.5-14.5 14.5zM527.4 581.9c-22.8 0-41.4-18.6-41.4-41.4v-51.3h82.8v51.3c0 22.8-18.7 41.4-41.4 41.4z" fill="#F08631" p-id="18727"></path></svg>