<?xml version="1.0" standalone="no"?><!DOCTYPE svg PUBLIC "-//W3C//DTD SVG 1.1//EN" "http://www.w3.org/Graphics/SVG/1.1/DTD/svg11.dtd"><svg t="1618038715500" class="icon" viewBox="0 0 1024 1024" version="1.1" xmlns="http://www.w3.org/2000/svg" p-id="807" xmlns:xlink="http://www.w3.org/1999/xlink" width="48" height="48"><defs><style type="text/css"></style></defs><path d="M802.128 741.586c-0.004 35.598-28.866 64.454-64.462 64.448H286.418c-35.598 0.006-64.46-28.85-64.464-64.448V290.448S221.586 226 286.418 226h137.664l136 106.358h177.586s64.336-5.514 64.464 58.91c0.126 64.424 0 81.29 0 81.29l-0.004 269.028z" fill="#4988FD" p-id="808"></path><path d="M737.676 836.034H286.418c-52.086 0.004-94.458-42.364-94.464-94.444V290.448c-0.024-4.026 0.546-41.62 27.55-68.778C231.148 209.958 252.208 196 286.418 196h148.002l136 106.358h166.298c1.124-0.06 2.706-0.118 4.672-0.118 45.078 0 90.62 27.51 90.742 88.968 0.122 61.87 0.012 79.788 0 81.464l-0.004 268.914c-0.004 52.08-42.376 94.448-94.452 94.448zM286.418 256c-16.438 0-22.406 6.002-24.366 7.974-9.43 9.484-10.098 26.142-10.098 26.302v451.31c0.002 18.994 15.458 34.45 34.452 34.448h451.27c18.996 0 34.452-15.456 34.454-34.452l0.004-269.25c0.002-0.168 0.126-17.626 0-81.006-0.02-9.44-0.058-29.086-30.742-29.086-0.582 0-1.03 0.012-1.31 0.024l-1.46 0.158-0.952-0.064h-187.924l-136-106.358h-127.328z" fill="#4988FD" p-id="809"></path><path d="M613.002 585.696H401.266c-16.568 0-30-13.432-30-30s13.432-30 30-30h211.736c16.568 0 30 13.432 30 30s-13.432 30-30 30z" fill="#DFECFD" p-id="810"></path><path d="M767.278 271.62H578.96c-16.568 0-30-13.432-30-30s13.432-30 30-30h188.316c16.568 0 30 13.432 30 30s-13.43 30-29.998 30z" fill="#4988FD" p-id="811"></path><path d="M512 680.304c-16.568 0-30-13.432-30-30V463c0-16.568 13.432-30 30-30s30 13.432 30 30v187.304c0 16.57-13.432 30-30 30z" fill="#DFECFD" p-id="812"></path></svg>