<?xml version="1.0" standalone="no"?><!DOCTYPE svg PUBLIC "-//W3C//DTD SVG 1.1//EN" "http://www.w3.org/Graphics/SVG/1.1/DTD/svg11.dtd"><svg t="1618038710304" class="icon" viewBox="0 0 1231 1024" version="1.1" xmlns="http://www.w3.org/2000/svg" p-id="655" xmlns:xlink="http://www.w3.org/1999/xlink" width="57.703125" height="48"><defs><style type="text/css"></style></defs><path d="M1024.002465 75.851852H227.558021v436.148148a37.925926 37.925926 0 0 0 37.925926 37.925926h796.444444V113.777778a37.925926 37.925926 0 0 0-37.925926-37.925926z" fill="#B6C1D8" p-id="656"></path><path d="M1099.854317 0H265.483947a37.925926 37.925926 0 0 0-37.925926 37.925926v37.925926h796.444444a37.925926 37.925926 0 0 1 37.925926 37.925926v436.148148h37.925926a37.925926 37.925926 0 0 0 37.925926-37.925926V37.925926a37.925926 37.925926 0 0 0-37.925926-37.925926z" fill="#A1AECE" opacity=".4" p-id="657"></path><path d="M227.558021 512V75.851852H170.669132a37.925926 37.925926 0 0 0-37.925926 37.925926v474.074074a37.925926 37.925926 0 0 0 37.925926 37.925926h853.333333a37.925926 37.925926 0 0 0 37.925926-37.925926v-37.925926H265.483947a37.925926 37.925926 0 0 1-37.925926-37.925926z" fill="#A1AECE" opacity=".4" p-id="658"></path><path d="M29.584687 148.859259h586.524445l68.835555 163.081482h516.361482A29.582222 29.582222 0 0 1 1231.078021 341.333333v652.894815A29.771852 29.771852 0 0 1 1201.306169 1024H29.584687A29.582222 29.582222 0 0 1 0.002465 994.228148v-815.407407a29.582222 29.582222 0 0 1 29.582222-29.961482z" fill="#3A75FF" p-id="659"></path></svg>