<?xml version="1.0" standalone="no"?><!DOCTYPE svg PUBLIC "-//W3C//DTD SVG 1.1//EN" "http://www.w3.org/Graphics/SVG/1.1/DTD/svg11.dtd"><svg t="1617973353159" class="icon" viewBox="0 0 1024 1024" version="1.1" xmlns="http://www.w3.org/2000/svg" p-id="2370" xmlns:xlink="http://www.w3.org/1999/xlink" width="48" height="48"><defs><style type="text/css"></style></defs><path d="M847.872 240.128v688c0 26.56-21.408 48-48 48h-576c-26.56 0-48-21.44-48-48v-832c0-26.592 21.44-48 48-48h432z" fill="#E9EDED" p-id="2371"></path><path d="M847.872 240.128h-144c-26.56 0-48-21.44-48-48v-144" fill="#25B39E" p-id="2372"></path><path d="M160.128 768.128v96h5.792c-3.52 10.048-5.792 20.704-5.792 32 0 53.184 42.816 96 96 96h512c53.184 0 96-42.816 96-96 0-11.296-2.272-21.952-5.824-32h5.824v-96h-704z" fill="#25B39E" p-id="2373"></path><path d="M224 704.128l160-224 160 224z" fill="#25B39E" p-id="2374"></path><path d="M352 704.128l224-320 224 320z" fill="#25B39E" p-id="2375"></path><path d="M352 352.128m-64 0a64 64 0 1 0 128 0 64 64 0 1 0-128 0Z" fill="#FCD062" p-id="2376"></path><path d="M306.496 800.128c-27.616 0-50.368 22.72-50.368 50.368v59.264c0 27.616 22.72 50.368 50.368 50.368h27.264a50.56 50.56 0 0 0 49.6-43.136 16 16 0 0 0 0.768-5.056v-31.552a16 16 0 0 0 0-0.256 16 16 0 0 0 0-0.256 16 16 0 0 0-0.064-1.12 16 16 0 0 0-0.736-3.616 16 16 0 0 0-0.384-1.024 16 16 0 0 0-0.192-0.48 16 16 0 0 0-0.128-0.192 16 16 0 0 0-1.44-2.56 16 16 0 0 0-0.672-0.864 16 16 0 0 0-0.32-0.384 16 16 0 0 0-0.768-0.832 16 16 0 0 0-0.352-0.352 16 16 0 0 0-0.192-0.192 16 16 0 0 0-5.184-3.136 16 16 0 0 0-1.056-0.384 16 16 0 0 0-0.512-0.096 16 16 0 0 0-1.056-0.256 16 16 0 0 0-2.08-0.256 16 16 0 0 0-1.12 0h-31.552a16 16 0 1 0 0 32h15.808v13.632a18.016 18.016 0 0 1-18.368 18.368h-27.264a18.016 18.016 0 0 1-18.368-18.368v-59.264c0-10.432 7.936-18.368 18.368-18.368h61.632a16 16 0 1 0 0-32H306.496z m125.376 0a16 16 0 0 0-15.744 16.192v127.616a16 16 0 1 0 32 0v-127.616a16 16 0 0 0-16.256-16.192z m98.624 0c-27.616 0-50.368 22.72-50.368 50.368v28.256a16 16 0 0 0 0 2.368v63.008a16 16 0 1 0 32 0v-48h32a16 16 0 1 0 0-32h-32v-13.632c0-10.432 7.936-18.368 18.368-18.368h29.632a16 16 0 1 0 0-32h-29.632z" fill="#E9EDED" p-id="2377"></path></svg>