<?xml version="1.0" standalone="no"?><!DOCTYPE svg PUBLIC "-//W3C//DTD SVG 1.1//EN" "http://www.w3.org/Graphics/SVG/1.1/DTD/svg11.dtd"><svg t="1618039577222" class="icon" viewBox="0 0 1024 1024" version="1.1" xmlns="http://www.w3.org/2000/svg" p-id="1004" xmlns:xlink="http://www.w3.org/1999/xlink" width="48" height="48"><defs><style type="text/css"></style></defs><path d="M751.80113 11.570621H210.932429a74.804068 74.804068 0 0 0-74.572655 74.572656v851.713446A74.804068 74.804068 0 0 0 210.932429 1012.429379h708.700565a74.804068 74.804068 0 0 0 74.572656-74.572656V254.032994z" fill="#E4F9F4" p-id="1005"></path><path d="M751.80113 179.344633a74.861921 74.861921 0 0 0 74.572655 74.630508h167.774012L751.80113 11.570621z" fill="#6BDDC7" p-id="1006"></path><path d="M18.223729 624.813559m69.423729 0l569.853107 0q69.423729 0 69.423729 69.423729l0 185.129944q0 69.423729-69.423729 69.423728l-569.853107 0q-69.423729 0-69.423729-69.423728l0-185.129944q0-69.423729 69.423729-69.423729Z" fill="#38D6B8" p-id="1007"></path><path d="M159.732429 925.302599h19.380791a18.512994 18.512994 0 0 0 14.983955-6.248136 25.976045 25.976045 0 0 0 5.264633-17.355932V700.022599h24.471864v201.502373a50.621469 50.621469 0 0 1-10.760678 34.711864 38.703729 38.703729 0 0 1-30.54644 12.264859h-22.794125z m39.629379-296.265763h24.818983V653.740113h-24.818983zM259.52904 700.022599h24.471864v248.305537h-24.471864z m43.158418 171.997288a42.695593 42.695593 0 0 1-21.058531-23.141243l2.371977-36.910282a48.075932 48.075932 0 0 0 5.438192 22.215593 44.720452 44.720452 0 0 0 15.620339 17.355932 43.042712 43.042712 0 0 0 23.83548 6.653107 43.968362 43.968362 0 0 0 34.191187-13.537627 52.762034 52.762034 0 0 0 12.033446-36.968135V769.446328a54.266215 54.266215 0 0 0-12.033446-37.662373 43.679096 43.679096 0 0 0-34.191187-13.364068 43.447684 43.447684 0 0 0-23.83548 6.537401 44.778305 44.778305 0 0 0-15.620339 16.950961 46.282486 46.282486 0 0 0-5.438192 21.752768l-3.586893-34.017627a56.001808 56.001808 0 0 1 24.414012-24.703277 78.101695 78.101695 0 0 1 35.463954-7.578757 58.952316 58.952316 0 0 1 32.050622 8.446554 52.704181 52.704181 0 0 1 20.306441 24.58757 97.36678 97.36678 0 0 1 7.000226 39.050848v38.472316a93.143503 93.143503 0 0 1-7.173786 38.414463 53.224859 53.224859 0 0 1-20.884972 24.414012 62.19209 62.19209 0 0 1-33.034124 8.3887 80.99435 80.99435 0 0 1-35.868926-7.347344zM454.494011 870.457853a52.935593 52.935593 0 0 1-20.884971-24.414011 93.143503 93.143503 0 0 1-7.173786-38.414463V769.446328a97.36678 97.36678 0 0 1 7.000226-38.935142 52.704181 52.704181 0 0 1 20.306441-24.703276 58.778757 58.778757 0 0 1 32.050621-8.388701 78.275254 78.275254 0 0 1 35.753221 7.405198 56.001808 56.001808 0 0 1 24.414011 24.703277l-3.876158 34.133333a47.092429 47.092429 0 0 0-5.380339-21.926328 42.63774 42.63774 0 0 0-15.562486-16.835254 49.232994 49.232994 0 0 0-58.142373 6.88452 54.266215 54.266215 0 0 0-12.091299 37.662373v38.298757a52.819887 52.819887 0 0 0 12.091299 36.910282 43.968362 43.968362 0 0 0 34.191187 13.190509 42.695593 42.695593 0 0 0 23.777627-6.653108 44.431186 44.431186 0 0 0 15.678192-17.355932 48.075932 48.075932 0 0 0 5.438192-22.215593l2.371977 36.910282a42.695593 42.695593 0 0 1-21.058531 23.141243 80.99435 80.99435 0 0 1-35.92678 7.058079 62.076384 62.076384 0 0 1-32.976271-8.272994z m16.141017 77.63887l-15.620339-7.405198a57.274576 57.274576 0 0 1-24.298305-20.827118l16.661695-14.983955a55.654689 55.654689 0 0 0 19.207232 16.083164 49.695819 49.695819 0 0 0 75.209039-46.282486V700.022599h24.471865v171.245198a90.019435 90.019435 0 0 1-8.909379 41.654237 60.398644 60.398644 0 0 1-25.918192 26.381017 86.432542 86.432542 0 0 1-41.017853 9.025085z" fill="#FFFFFF" p-id="1008"></path><path d="M571.76226 289.265537a127.276836 127.276836 0 0 1-254.553672 0c0-70.291525 56.985311-196.700565 127.276836-196.700565s127.276836 126.40904 127.276836 196.700565zM375.061695 520.677966h138.847458v23.141243h-138.847458z" fill="#6BDDC7" p-id="1009"></path><path d="M430.022147 335.548023h28.926554v196.700565h-28.926554z" fill="#6BDDC7" p-id="1010"></path><path d="M457.039548 306.621469l69.423729-80.99435" fill="#38D6B8" p-id="1011"></path></svg>