<?xml version="1.0" standalone="no"?><!DOCTYPE svg PUBLIC "-//W3C//DTD SVG 1.1//EN" "http://www.w3.org/Graphics/SVG/1.1/DTD/svg11.dtd"><svg t="1617972545963" class="icon" viewBox="0 0 1024 1024" version="1.1" xmlns="http://www.w3.org/2000/svg" p-id="24550" xmlns:xlink="http://www.w3.org/1999/xlink" width="48" height="48"><defs><style type="text/css"></style></defs><path d="M855.744 252.96v636.416a46.88 46.88 0 0 1-49.12 44.416H217.12a46.912 46.912 0 0 1-49.12-44.416V119.808a46.88 46.88 0 0 1 49.12-44.416h442.112z" fill="#E9EDED" p-id="24551"></path><path d="M168 591.2h687.136v24.32H168z" fill="#C4C4C4" opacity=".45" p-id="24552"></path><path d="M151.744 643.136v246.4a62.592 62.592 0 0 0 65.504 59.2h589.312a62.592 62.592 0 0 0 65.504-59.2v-246.4a16.32 16.32 0 0 0-17.056-15.424H168.8a16.32 16.32 0 0 0-17.056 15.424z" fill="#5D53BC" p-id="24553"></path><path d="M168.8 615.52a16.32 16.32 0 0 0-17.056 15.456v235.648A60.8 60.8 0 0 0 217.248 921.6h589.312a60.8 60.8 0 0 0 65.504-54.976v-235.648a16.32 16.32 0 0 0-17.056-15.456z" fill="#8573E2" p-id="24554"></path><path d="M452.8 289.6a15.68 15.68 0 0 0-16.608 14.56v209.536a15.616 15.616 0 0 0 16.352 14.816 17.408 17.408 0 0 0 9.6-2.72l163.456-104.704a13.888 13.888 0 0 0 3.808-20.608 16 16 0 0 0-3.808-3.456l-163.584-104.768a17.376 17.376 0 0 0-9.216-2.656z m16 43.456l118.848 76.096-118.72 76z" fill="#C4C4C4" opacity=".45" p-id="24555"></path><path d="M452.672 279.232a15.712 15.712 0 0 0-16.64 14.56v209.568a15.68 15.68 0 0 0 16.352 14.816 17.664 17.664 0 0 0 9.6-2.752l163.456-104.704a13.888 13.888 0 0 0 3.808-20.608 16 16 0 0 0-3.808-3.456l-163.584-104.64a17.28 17.28 0 0 0-9.184-2.784z m16 43.488l118.848 76.064-118.848 76z" fill="#8573E2" p-id="24556"></path><path d="M855.712 252.96v14.56h-147.36a46.88 46.88 0 0 1-49.12-44.416v-133.12z" fill="#C4C4C4" opacity=".45" p-id="24557"></path><path d="M396.192 703.424h32.928v127.456h-32.928v-82.848l-27.232 37.344h-32.544l-28.8-38.4v83.808H274.848v-127.36h32.928l44.8 59.776z" fill="#FFFFFF" p-id="24558"></path><path d="M573.184 709.152a43.936 43.936 0 0 1 16.704 14.976 37.408 37.408 0 0 1 6.144 20.704 37.92 37.92 0 0 1-6.144 20.832 43.68 43.68 0 0 1-16.704 15.072 48.992 48.992 0 0 1-23.008 5.504h-60.192v44.608h-32.8v-127.232h92.8a48.672 48.672 0 0 1 23.2 5.536z m-17.088 51.2a19.936 19.936 0 0 0 7.008-15.36 19.648 19.648 0 0 0-7.008-15.168 24.128 24.128 0 0 0-16.768-6.4h-49.344v43.104h49.312a24.128 24.128 0 0 0 16.704-6.304z" fill="#FFFFFF" p-id="24559"></path><path d="M755.52 784.256v19.808h-20.64v26.816h-32.96v-26.816h-85.12v-19.808h9.6l51.968-80.64h56.512v80.64z m-96.192 0h42.592v-66.016z" fill="#FFFFFF" p-id="24560"></path><path d="M855.712 252.96h-147.36a46.88 46.88 0 0 1-49.12-44.416V75.392z" fill="#8573E2" p-id="24561"></path></svg>