<?xml version="1.0" standalone="no"?><!DOCTYPE svg PUBLIC "-//W3C//DTD SVG 1.1//EN" "http://www.w3.org/Graphics/SVG/1.1/DTD/svg11.dtd"><svg t="1617973389827" class="icon" viewBox="0 0 1024 1024" version="1.1" xmlns="http://www.w3.org/2000/svg" p-id="2974" xmlns:xlink="http://www.w3.org/1999/xlink" width="48" height="48"><defs><style type="text/css"></style></defs><path d="M847.872 240.128v688c0 26.56-21.408 48-48 48h-576c-26.56 0-48-21.44-48-48v-832c0-26.592 21.44-48 48-48h432z" fill="#E9EDED" p-id="2975"></path><path d="M160 768.128v160c0 35.456 28.544 64 64 64h576c35.456 0 64-28.544 64-64v-160H160z" fill="#CAD1D8" p-id="2976"></path><path d="M847.872 240.128h-144c-26.56 0-48-21.44-48-48v-144" fill="#CAD1D8" p-id="2977"></path><path d="M496.256 352.128a79.424 79.424 0 0 0-43.52 12.672 80.192 80.192 0 0 0-26.048 107.264 16 16 0 1 0 27.744-16 47.776 47.776 0 0 1 15.616-64.384 47.744 47.744 0 0 1 65.024 12.576c14.944 20.96 10.88 49.536-9.312 65.504h-0.064l-10.432 7.936A80 80 0 0 0 480 544v80a16 16 0 1 0 32 0V544c0-16 7.872-30.816 21.12-39.744a16 16 0 0 0 0.768-0.64l11.36-8.672a16 16 0 0 0 0.256 0 80.256 80.256 0 0 0 15.616-109.312 79.616 79.616 0 0 0-49.984-32 81.216 81.216 0 0 0-14.88-1.504z m-127.328 64a16 16 0 0 0-10.976 4.736L262.176 515.52a16 16 0 0 0-5.664 9.024 16 16 0 0 0-0.128 0.416 16 16 0 0 0-0.064 0.512 16 16 0 0 0-0.256 2.944 16 16 0 0 0 0.064 0.8 16 16 0 0 0 0.064 0.768 16 16 0 0 0 0.128 0.96 16 16 0 0 0 0.128 0.64 16 16 0 0 0 0.128 0.448 16 16 0 0 0 5.472 8.736l95.904 94.72a16 16 0 1 0 22.4-22.784l-85.472-84.48 85.504-84.576a16 16 0 0 0-11.456-27.52z m253.632 0a16 16 0 0 0-10.944 27.52l85.504 84.544-85.504 84.48a16 16 0 1 0 22.432 22.752l95.936-94.72a16 16 0 0 0 5.952-12.48 16 16 0 0 0 0-0.544 16 16 0 0 0-0.064-1.056 16 16 0 0 0-0.064-0.512 16 16 0 0 0-0.192-1.056 16 16 0 0 0-5.856-9.6l-95.68-94.592a16 16 0 0 0-11.52-4.736z m-127.68 256a16 16 0 0 0-14.88 16 16 16 0 0 0 16 16 16 16 0 0 0 16-16 16 16 0 0 0-16-16 16 16 0 0 0-1.12 0z" fill="#CAD1D8" p-id="2978"></path><path d="M399.424 800.064a16 16 0 0 0-15.744 16.192v62.496a16 16 0 0 0 0 2.368v62.816a16 16 0 1 0 32 0v-47.808h63.936v47.808a16 16 0 1 0 32 0v-60.864a16 16 0 0 0 0-6.016v-60.8a16 16 0 0 0-16.192-16.192 16 16 0 0 0-15.808 16.192v47.872H415.68v-47.872a16 16 0 0 0-16.256-16.192z m-95.744 0.064c-24.768 0-45.152 19.296-47.488 43.52l-0.064 0.288a16 16 0 0 0-0.448 4v96a16 16 0 1 0 32 0V893.12c5.024 1.824 10.4 3.008 16 3.008 26.336 0 48-21.696 48-48 0-26.336-21.664-48-48-48z m288 0c-24.896 0-45.376 19.456-47.552 43.808a16 16 0 0 0-0.448 4v96a16 16 0 1 0 32 0V893.12c5.024 1.824 10.4 3.008 16 3.008 26.336 0 48-21.696 48-48 0-26.336-21.664-48-48-48z m-288 32c9.024 0 16 6.976 16 16 0 9.024-6.976 16-16 16a15.776 15.776 0 0 1-16-16v-0.192a15.776 15.776 0 0 1 16-15.808z m288 0c9.024 0 16 6.976 16 16 0 9.024-6.976 16-16 16a15.776 15.776 0 0 1-16-16v-0.192a15.776 15.776 0 0 1 16-15.808z" fill="#E9EDED" p-id="2979"></path></svg>