<?xml version="1.0" standalone="no"?><!DOCTYPE svg PUBLIC "-//W3C//DTD SVG 1.1//EN" "http://www.w3.org/Graphics/SVG/1.1/DTD/svg11.dtd"><svg t="1618119006714" class="icon" viewBox="0 0 1024 1024" version="1.1" xmlns="http://www.w3.org/2000/svg" p-id="1476" xmlns:xlink="http://www.w3.org/1999/xlink" width="48" height="48"><defs><style type="text/css"></style></defs><path d="M751.80113 11.570621H210.932429a74.804068 74.804068 0 0 0-74.572655 74.572656v851.713446A74.804068 74.804068 0 0 0 210.932429 1012.429379h708.700565a74.804068 74.804068 0 0 0 74.572656-74.572656V254.032994z" fill="#F9F3DC" p-id="1477"></path><path d="M751.80113 179.344633a74.861921 74.861921 0 0 0 74.572655 74.630508h167.774012L751.80113 11.570621z" fill="#EFD66C" p-id="1478"></path><path d="M18.223729 624.813559m69.423729 0l569.853107 0q69.423729 0 69.423729 69.423729l0 185.129944q0 69.423729-69.423729 69.423728l-569.853107 0q-69.423729 0-69.423729-69.423728l0-185.129944q0-69.423729 69.423729-69.423729Z" fill="#EFCB35" p-id="1479"></path><path d="M132.946441 671.096045h24.529717v248.305537h-24.529717z m43.216271 171.997288a42.811299 42.811299 0 0 1-21.116384-23.141243l2.42983-36.910282a48.075932 48.075932 0 0 0 5.438192 22.215593 43.852655 43.852655 0 0 0 15.620339 17.355932 43.042712 43.042712 0 0 0 23.83548 6.653108 43.968362 43.968362 0 0 0 34.133334-13.190509 52.530621 52.530621 0 0 0 12.091299-36.968135V740.519774a53.976949 53.976949 0 0 0-12.091299-37.662373 43.621243 43.621243 0 0 0-34.133334-13.364068 43.447684 43.447684 0 0 0-23.83548 6.537401 43.910508 43.910508 0 0 0-15.620339 16.950961 46.282486 46.282486 0 0 0-5.438192 21.752768l-3.586892-34.017627a55.712542 55.712542 0 0 1 24.414011-24.703277 77.928136 77.928136 0 0 1 35.463955-7.578757 58.952316 58.952316 0 0 1 32.050621 8.446554 53.051299 53.051299 0 0 1 20.306441 24.587571 98.350282 98.350282 0 0 1 6.942373 38.935141v38.472316a94.069153 94.069153 0 0 1-7.115933 38.414463 53.051299 53.051299 0 0 1-20.942824 24.414012 61.844972 61.844972 0 0 1-32.976272 8.3887 80.99435 80.99435 0 0 1-35.868926-7.231638zM305.001582 671.096045h24.471864v176.509831h-24.471864z m117.326102 69.423729a50.679322 50.679322 0 0 0-12.322712-36.389605 45.703955 45.703955 0 0 0-34.711865-12.901242 47.034576 47.034576 0 0 0-33.786214 11.570621 42.984859 42.984859 0 0 0-11.975594 32.571299l-3.586892-34.017627a57.853107 57.853107 0 0 1 24.876836-25.108248 79.258757 79.258757 0 0 1 35.868926-7.694464 54.786893 54.786893 0 0 1 44.48904 18.80226q15.678192 18.455141 15.678192 53.167006v107.143955h-24.529717zM505.11548 841.531299a53.051299 53.051299 0 0 1-20.942825-24.414011 94.069153 94.069153 0 0 1-7.115932-38.414463V740.519774a98.350282 98.350282 0 0 1 6.942373-38.935141A52.704181 52.704181 0 0 1 504.189831 676.881356a58.952316 58.952316 0 0 1 32.050621-8.388701 77.928136 77.928136 0 0 1 35.463955 7.578757 55.712542 55.712542 0 0 1 24.414011 24.703277l-3.471186 33.959774a47.034576 47.034576 0 0 0-5.322486-21.926327 43.042712 43.042712 0 0 0-15.562486-16.835255 44.199774 44.199774 0 0 0-24.00904-6.479548 43.621243 43.621243 0 0 0-34.133333 13.364068 53.976949 53.976949 0 0 0-12.091299 37.662373v38.298757a52.530621 52.530621 0 0 0 12.091299 36.910283 43.968362 43.968362 0 0 0 34.133333 13.190508 43.042712 43.042712 0 0 0 23.835481-6.653107 43.852655 43.852655 0 0 0 15.620339-17.355933 48.075932 48.075932 0 0 0 5.438192-22.215593l2.42983 36.910283a42.811299 42.811299 0 0 1-21.116384 23.141243 80.99435 80.99435 0 0 1-35.868927 7.058079 61.844972 61.844972 0 0 1-32.976271-8.272995zM521.545763 919.170169l-15.678192-7.405197A57.853107 57.853107 0 0 1 481.048588 890.937853l16.661694-14.983955a56.869605 56.869605 0 0 0 19.207232 16.083164 52.067797 52.067797 0 0 0 23.661921 5.785311 51.662825 51.662825 0 0 0 38.240904-13.653333 52.067797 52.067797 0 0 0 13.59548-38.53017V671.096045h24.529718v171.245198a89.961582 89.961582 0 0 1-8.967232 41.654237 60.109379 60.109379 0 0 1-25.918192 26.381017 86.374689 86.374689 0 0 1-40.96 9.025085z" fill="#FFFFFF" p-id="1480"></path><path d="M288.687006 534.678418A35.75322 35.75322 0 0 1 255.421469 485.271864c25.397514-60.803616 72.084972-156.20339 115.706215-156.203389 64.216949 0 89.903729 102.747119 89.903728 102.747118S563.778531 252.008136 627.99548 252.008136c46.282486 0 136.301921 147.351864 182.700113 229.271864a35.695367 35.695367 0 0 1-31.124972 53.282712z" fill="#EFD66C" p-id="1481"></path><path d="M341.333333 185.129944m-52.067796 0a52.067797 52.067797 0 1 0 104.135593 0 52.067797 52.067797 0 1 0-104.135593 0Z" fill="#EFD66C" p-id="1482"></path></svg>