<?xml version="1.0" standalone="no"?><!DOCTYPE svg PUBLIC "-//W3C//DTD SVG 1.1//EN" "http://www.w3.org/Graphics/SVG/1.1/DTD/svg11.dtd"><svg t="1617973348351" class="icon" viewBox="0 0 1024 1024" version="1.1" xmlns="http://www.w3.org/2000/svg" p-id="2221" xmlns:xlink="http://www.w3.org/1999/xlink" width="48" height="48"><defs><style type="text/css"></style></defs><path d="M847.872 240.128v688c0 26.56-21.408 48-48 48h-576c-26.56 0-48-21.44-48-48v-832c0-26.592 21.44-48 48-48h432z" fill="#E9EDED" p-id="2222"></path><path d="M495.744 288a16 16 0 0 0-15.744 16.256V320h-144a16 16 0 0 0-16 16v224a16 16 0 0 0 16 16h73.76l-24.96 74.752a16 16 0 1 0 30.4 10.112L443.488 576H480a16 16 0 0 0 0 0.064V672a16 16 0 1 0 32 0v-95.936A16 16 0 0 0 512 576h36.48l28.32 84.864a16 16 0 1 0 30.4-10.112L582.24 576H656a16 16 0 0 0 16-16v-224a16 16 0 0 0-16-16H512v-15.744A16 16 0 0 0 495.744 288zM352 352h288v192h-76.576a16 16 0 0 0-4.096-0.384 16 16 0 0 0-2.88 0.384H435.52a16 16 0 0 0-3.36-0.384 16 16 0 0 0-3.68 0.384H352v-192z" fill="#F17F53" p-id="2223"></path><path d="M160 768.128v160c0 35.456 28.544 64 64 64h576c35.456 0 64-28.544 64-64v-160H160z" fill="#F17F53" p-id="2224"></path><path d="M847.872 240.128h-144c-26.56 0-48-21.44-48-48v-144" fill="#F17F53" p-id="2225"></path><path d="M559.616 799.808a16 16 0 0 0-2.368 0.192h-29.376a16 16 0 1 0 0 32h16v111.808a16 16 0 1 0 32 0V832h16a16 16 0 1 0 0-32h-29.504a16 16 0 0 0-2.752-0.192zM303.872 800c-24.768 0-45.152 19.296-47.488 43.52l-0.064 0.32a16 16 0 0 0-0.448 3.968v96a16 16 0 1 0 32 0v-50.816c5.024 1.824 10.368 3.008 16 3.008 26.336 0 48-21.664 48-48s-21.664-48-48-48z m128 0c-24.896 0-45.376 19.456-47.552 43.84a16 16 0 0 0-0.448 3.968v96a16 16 0 1 0 32 0v-50.816c5.024 1.824 10.368 3.008 16 3.008 26.336 0 48-21.664 48-48s-21.664-48-48-48z m-128 32c9.024 0 16 6.976 16 16 0 9.024-6.976 16-16 16a15.776 15.776 0 0 1-16-16v-0.192a15.776 15.776 0 0 1 16-15.808z m128 0c9.024 0 16 6.976 16 16 0 9.024-6.976 16-16 16a15.776 15.776 0 0 1-16-16v-0.192a15.776 15.776 0 0 1 16-15.808z" fill="#E9EDED" p-id="2226"></path></svg>