<?xml version="1.0" standalone="no"?><!DOCTYPE svg PUBLIC "-//W3C//DTD SVG 1.1//EN" "http://www.w3.org/Graphics/SVG/1.1/DTD/svg11.dtd"><svg t="1618039201673" class="icon" viewBox="0 0 1024 1024" version="1.1" xmlns="http://www.w3.org/2000/svg" p-id="1322" xmlns:xlink="http://www.w3.org/1999/xlink" width="48" height="48"><defs><style type="text/css"></style></defs><path d="M751.80113 11.570621H210.932429a74.804068 74.804068 0 0 0-74.572655 74.572656v851.713446A74.804068 74.804068 0 0 0 210.932429 1012.429379h708.700565a74.804068 74.804068 0 0 0 74.572656-74.572656V254.032994z" fill="#F7E2E2" p-id="1323"></path><path d="M751.80113 179.344633a74.861921 74.861921 0 0 0 74.572655 74.630508h167.774012L751.80113 11.570621z" fill="#F49292" p-id="1324"></path><path d="M18.223729 624.813559m69.423729 0l569.853107 0q69.423729 0 69.423729 69.423729l0 185.129944q0 69.423729-69.423729 69.423728l-569.853107 0q-69.423729 0-69.423729-69.423728l0-185.129944q0-69.423729 69.423729-69.423729Z" fill="#F47F7F" p-id="1325"></path><path d="M279.314802 185.650621h354.350283v49.753673H279.314802zM279.314802 295.455819h354.350283v49.753673H279.314802zM279.314802 405.261017h472.428475v49.753672H279.314802zM279.314802 515.124068h578.126102v49.753672H279.314802z" fill="#F49292" p-id="1326"></path><path d="M198.262599 849.92l-13.421921-2.776949a115.185537 115.185537 0 0 1-25.108249-8.272995 92.969944 92.969944 0 0 1-20.653559-13.074802l14.116158-17.355932a130.690169 130.690169 0 0 0 29.910057 15.041808 89.845876 89.845876 0 0 0 29.447231 5.380339 74.109831 74.109831 0 0 0 39.224407-8.677966 27.422373 27.422373 0 0 0 13.826893-24.529718 21.579209 21.579209 0 0 0-6.710961-17.355932 36.331751 36.331751 0 0 0-16.95096-7.868022 245.76 245.76 0 0 0-28.348023-3.355481h-9.719322a168.352542 168.352542 0 0 1-29.273672-5.091073 39.860791 39.860791 0 0 1-19.612203-12.785537 40.786441 40.786441 0 0 1-7.925876-27.017401 49.580113 49.580113 0 0 1 8.272994-28.926554 51.142147 51.142147 0 0 1 24.124746-18.165875 103.094237 103.094237 0 0 1 38.183051-6.305989 120.623729 120.623729 0 0 1 23.141243 2.256271 124.673446 124.673446 0 0 1 22.215593 6.653107 100.72226 100.72226 0 0 1 19.438644 10.471413l-14.116158 16.835254a118.945989 118.945989 0 0 0-26.207458-11.570621 90.366554 90.366554 0 0 0-25.51322-3.991865 60.861469 60.861469 0 0 0-34.711865 8.330848 26.843842 26.843842 0 0 0-12.264858 23.488361 18.628701 18.628701 0 0 0 6.653107 15.736045 36.563164 36.563164 0 0 0 16.719548 6.88452 269.59548 269.59548 0 0 0 27.827345 2.719096h1.446327a6.363842 6.363842 0 0 0 1.446328 0h2.024859a153.195028 153.195028 0 0 1 31.529943 4.570396 42.869153 42.869153 0 0 1 21.868475 14.116158 46.282486 46.282486 0 0 1 8.851525 30.430734 48.133785 48.133785 0 0 1-8.851525 29.273673 55.134011 55.134011 0 0 1-25.860339 18.455141 117.615367 117.615367 0 0 1-40.96 6.363842zM424.063277 671.096045h25.976045l-69.423729 176.509831h-19.670056L291.232542 671.096045h26.033899l53.398418 144.632769zM486.197514 841.531299a53.224859 53.224859 0 0 1-20.884972-24.414011A93.143503 93.143503 0 0 1 457.907345 778.702825V740.519774a97.36678 97.36678 0 0 1 7.000226-38.935141 52.704181 52.704181 0 0 1 20.537853-24.703277 58.952316 58.952316 0 0 1 32.050621-8.388701 78.101695 78.101695 0 0 1 35.463955 7.578757 56.001808 56.001808 0 0 1 24.414011 24.703277L573.613559 734.734463a47.728814 47.728814 0 0 0-5.322486-21.926327 43.042712 43.042712 0 0 0-15.562485-16.835255 44.199774 44.199774 0 0 0-24.00904-6.479548 43.679096 43.679096 0 0 0-34.191186 13.364068 54.266215 54.266215 0 0 0-11.859887 37.662373v38.298757a52.762034 52.762034 0 0 0 12.033446 36.910283 43.968362 43.968362 0 0 0 34.191186 13.190508 43.042712 43.042712 0 0 0 23.835481-6.653107 44.720452 44.720452 0 0 0 15.620339-17.355933 48.075932 48.075932 0 0 0 5.264632-22.15774l2.371978 36.910283a42.695593 42.695593 0 0 1-21.058531 23.141243 80.99435 80.99435 0 0 1-35.868927 7.058079 62.19209 62.19209 0 0 1-32.860565-8.330848z m16.19887 77.63887L486.833898 911.764972a57.853107 57.853107 0 0 1-24.298305-20.827119l16.661695-14.983955a56.869605 56.869605 0 0 0 19.207232 16.083164 49.695819 49.695819 0 0 0 75.209039-46.282486V671.096045h24.471865v171.245198a90.019435 90.019435 0 0 1-8.909379 41.654237 60.398644 60.398644 0 0 1-25.918192 26.381017 86.432542 86.432542 0 0 1-41.017853 9.025085z" fill="#FFFFFF" p-id="1327"></path></svg>