<?xml version="1.0" standalone="no"?><!DOCTYPE svg PUBLIC "-//W3C//DTD SVG 1.1//EN" "http://www.w3.org/Graphics/SVG/1.1/DTD/svg11.dtd"><svg t="1628226977886" class="icon" viewBox="0 0 1024 1024" version="1.1" xmlns="http://www.w3.org/2000/svg" p-id="5859" xmlns:xlink="http://www.w3.org/1999/xlink" width="200" height="200"><defs><style type="text/css"></style></defs><path d="M862.669126 132.017756c0-17.553795-14.372336-31.933293-31.92613-31.933293L97.213577 100.084463c-17.563004 0-31.92306 14.379499-31.92306 31.933293L65.290517 706.319707c0 17.554818 14.361079 31.914874 31.92306 31.914874l27.256784 0c17.563004 0 31.925107-14.359033 31.925107-31.914874L156.395468 224.727251c0-17.554818 14.362102-31.915897 31.925107-31.915897l642.423445 0c17.553795 0 31.92613-14.379499 31.92613-31.933293L862.67015 132.017756 862.669126 132.017756zM862.669126 132.017756" p-id="5860"></path><path d="M921.497976 254.30387 251.868913 254.30387c-20.554128 0-37.219693 16.648169-37.219693 37.201274l0 595.22447c0 20.536732 16.665565 37.185924 37.219693 37.185924l669.658739 0c20.554128 0 37.180807-16.649192 37.180807-37.185924L958.70846 291.506167C958.684924 270.952039 942.048011 254.30387 921.497976 254.30387L921.497976 254.30387 921.497976 254.30387zM847.08622 812.290227 326.250994 812.290227 326.250994 626.329908l111.632473-111.624287 186.003298 185.994088L735.521285 589.110215l111.601774 111.589494 0 111.591541L847.08622 812.291251 847.08622 812.290227zM772.678556 514.705622c-41.12156 0-74.376964-33.31271-74.376964-74.386174 0-41.148166 33.255405-74.407664 74.376964-74.407664 41.148166 0 74.407664 33.259498 74.407664 74.407664C847.08622 481.392912 813.826721 514.705622 772.678556 514.705622L772.678556 514.705622 772.678556 514.705622zM772.678556 514.705622" p-id="5861"></path></svg>