<?xml version="1.0" standalone="no"?><!DOCTYPE svg PUBLIC "-//W3C//DTD SVG 1.1//EN" "http://www.w3.org/Graphics/SVG/1.1/DTD/svg11.dtd"><svg t="1614841309262" class="icon" viewBox="0 0 1024 1024" version="1.1" xmlns="http://www.w3.org/2000/svg" p-id="2156" xmlns:xlink="http://www.w3.org/1999/xlink" width="200" height="200"><defs><style type="text/css"></style></defs><path d="M716.8 184.32H266.24c-49.152 0-81.92 28.672-81.92 81.92v491.52c0 53.248 32.768 81.92 81.92 81.92h491.52c49.152 0 81.92-28.672 81.92-81.92V315.392c0-6.144-2.048-10.24-6.144-14.336L716.8 184.32z m0 286.72H307.2V184.32h409.6v286.72z" p-id="2157" fill="#586069"></path><path d="M532.48 184.32h81.92c12.288 0 20.48 8.192 20.48 20.48v163.84c0 12.288-8.192 20.48-20.48 20.48h-81.92c-12.288 0-20.48-8.192-20.48-20.48v-163.84c0-12.288 8.192-20.48 20.48-20.48z" opacity=".3" p-id="2158" fill="#586069"></path></svg>